<svg width="90" height="90" viewBox="0 0 90 90" fill="none" xmlns="http://www.w3.org/2000/svg">
<circle cx="45" cy="45" r="44.5" fill="#008080" stroke="white"/>
<path d="M32.1071 45.15L45.6 56.8607C45.7036 56.95 45.8357 57 45.975 57H49.1357C49.4 57 49.5214 56.6714 49.3214 56.5L36.8143 45.6429H57.7143C57.8714 45.6429 58 45.5143 58 45.3571V43.2143C58 43.0571 57.8714 42.9286 57.7143 42.9286H36.8179L49.325 32.0714C49.525 31.8964 49.4036 31.5714 49.1393 31.5714H45.8714C45.8036 31.5714 45.7357 31.5964 45.6857 31.6429L32.1071 43.4214C31.9835 43.5289 31.8844 43.6617 31.8164 43.8108C31.7485 43.9599 31.7134 44.1219 31.7134 44.2857C31.7134 44.4496 31.7485 44.6115 31.8164 44.7606C31.8844 44.9097 31.9835 45.0425 32.1071 45.15Z" fill="white"/>
</svg>
