<svg width="28" height="26" viewBox="0 0 28 26" fill="none" xmlns="http://www.w3.org/2000/svg">
<path d="M26.7495 12.1356L13.2567 0.42493C13.1531 0.335644 13.021 0.285645 12.8817 0.285645H9.72098C9.45669 0.285645 9.33526 0.614216 9.53526 0.785645L22.0424 11.6428H1.1424C0.985261 11.6428 0.856689 11.7714 0.856689 11.9285V14.0714C0.856689 14.2285 0.985261 14.3571 1.1424 14.3571H22.0388L9.53169 25.2142C9.33169 25.3892 9.45312 25.7142 9.7174 25.7142H12.9853C13.0531 25.7142 13.121 25.6892 13.171 25.6428L26.7495 13.8642C26.8732 13.7567 26.9723 13.6239 27.0403 13.4748C27.1082 13.3257 27.1433 13.1638 27.1433 12.9999C27.1433 12.8361 27.1082 12.6741 27.0403 12.525C26.9723 12.3759 26.8732 12.2432 26.7495 12.1356Z" fill="white"/>
</svg>
